<svg width="20" height="20" viewBox="0 0 20 20" fill="none" xmlns="http://www.w3.org/2000/svg">
<path d="M14.8417 4.57484V5.1915L11.8917 3.48317C10.775 2.8415 9.21667 2.8415 8.10834 3.48317L5.15834 5.19984V4.57484C5.15834 2.69984 6.18334 1.6665 8.05834 1.6665H11.9417C13.8167 1.6665 14.8417 2.69984 14.8417 4.57484Z" fill="#6C51D2"/>
<path d="M14.8667 6.64186L14.75 6.58353L13.6167 5.93353L11.2667 4.5752C10.55 4.15853 9.45001 4.15853 8.73334 4.5752L6.38334 5.9252L5.25001 6.59186L5.10001 6.66686C3.64167 7.6502 3.54167 7.83353 3.54167 9.40853V13.1752C3.54167 14.7502 3.64167 14.9335 5.13334 15.9419L8.73334 18.0169C9.09167 18.2335 9.54167 18.3252 10 18.3252C10.45 18.3252 10.9083 18.2252 11.2667 18.0169L14.9 15.9169C16.3667 14.9335 16.4583 14.7585 16.4583 13.1752V9.40853C16.4583 7.83353 16.3583 7.6502 14.8667 6.64186ZM12.325 11.2502L11.8167 11.8752C11.7333 11.9669 11.675 12.1419 11.6833 12.2669L11.7333 13.0669C11.7667 13.5585 11.4167 13.8085 10.9583 13.6335L10.2167 13.3335C10.1 13.2919 9.90834 13.2919 9.79167 13.3335L9.05 13.6252C8.59167 13.8085 8.24167 13.5502 8.27501 13.0585L8.32501 12.2585C8.33334 12.1335 8.27501 11.9585 8.19167 11.8669L7.67501 11.2502C7.35834 10.8752 7.50001 10.4585 7.97501 10.3335L8.75001 10.1335C8.87501 10.1002 9.01667 9.98353 9.08334 9.88353L9.51667 9.21686C9.78334 8.8002 10.2083 8.8002 10.4833 9.21686L10.9167 9.88353C10.9833 9.99186 11.1333 10.1002 11.25 10.1335L12.025 10.3335C12.5 10.4585 12.6417 10.8752 12.325 11.2502Z" fill="#6C51D2"/>
</svg>
