<svg width="27" height="26" viewBox="0 0 27 26" fill="none" xmlns="http://www.w3.org/2000/svg">
<rect x="0.5" width="26" height="26" rx="13" fill="#FAFAFA"/>
<path d="M18.7812 6.8125C18.7812 7.03628 18.6924 7.25089 18.5341 7.40912C18.3759 7.56736 18.1613 7.65625 17.9375 7.65625C17.7137 7.65625 17.4991 7.56736 17.3409 7.40912C17.1826 7.25089 17.0937 7.03628 17.0937 6.8125C17.0937 6.58872 17.1826 6.37411 17.3409 6.21588C17.4991 6.05764 17.7137 5.96875 17.9375 5.96875C18.1613 5.96875 18.3759 6.05764 18.5341 6.21588C18.6924 6.37411 18.7812 6.58872 18.7812 6.8125ZM12.875 7.375C12.1291 7.375 11.4137 7.67132 10.8863 8.19876C10.3588 8.72621 10.0625 9.44158 10.0625 10.1875C10.0625 10.7842 10.2996 11.3565 10.7215 11.7785C11.1435 12.2004 11.7158 12.4375 12.3125 12.4375C12.76 12.4375 13.1893 12.2597 13.5057 11.9432C13.8222 11.6268 14 11.1976 14 10.75C14 10.4516 13.8815 10.1655 13.6705 9.9545C13.4595 9.74353 13.1734 9.625 12.875 9.625C12.7258 9.625 12.5827 9.68426 12.4772 9.78975C12.3718 9.89524 12.3125 10.0383 12.3125 10.1875C12.3125 10.3367 12.3718 10.4798 12.4772 10.5852C12.5827 10.6907 12.7258 10.75 12.875 10.75C12.875 10.8992 12.8157 11.0423 12.7102 11.1477C12.6048 11.2532 12.4617 11.3125 12.3125 11.3125C12.0141 11.3125 11.728 11.194 11.517 10.983C11.306 10.772 11.1875 10.4859 11.1875 10.1875C11.1875 9.73995 11.3653 9.31072 11.6818 8.99426C11.9982 8.67779 12.4274 8.5 12.875 8.5C13.4717 8.5 14.044 8.73705 14.466 9.15901C14.8879 9.58097 15.125 10.1533 15.125 10.75C15.125 11.4959 14.8287 12.2113 14.3012 12.7387C13.7738 13.2662 13.0584 13.5625 12.3125 13.5625C12.1633 13.5625 12.0202 13.6218 11.9147 13.7273C11.8093 13.8327 11.75 13.9758 11.75 14.125C11.75 14.2742 11.8093 14.4173 11.9147 14.5227C12.0202 14.6282 12.1633 14.6875 12.3125 14.6875C13.3568 14.6875 14.3583 14.2727 15.0967 13.5342C15.8352 12.7958 16.25 11.7943 16.25 10.75C16.25 9.85489 15.8944 8.99645 15.2615 8.36351C14.6285 7.73058 13.7701 7.375 12.875 7.375ZM9.5 13.5625C9.49999 13.4666 9.47546 13.3723 9.42873 13.2885C9.382 13.2047 9.31462 13.1343 9.233 13.0839C9.15138 13.0335 9.05823 13.0048 8.96241 13.0006C8.86658 12.9963 8.77125 13.0167 8.6855 13.0596L6.4355 14.1846C6.36711 14.2162 6.30576 14.2612 6.2551 14.317C6.20444 14.3727 6.16549 14.4381 6.14056 14.5092C6.11564 14.5803 6.10525 14.6556 6.11001 14.7308C6.11477 14.806 6.13458 14.8795 6.16827 14.9468C6.20196 15.0142 6.24884 15.0741 6.30613 15.1231C6.36342 15.172 6.42995 15.2089 6.50178 15.2316C6.5736 15.2543 6.64926 15.2624 6.72426 15.2553C6.79925 15.2482 6.87207 15.2261 6.93837 15.1904L8.37387 14.4726V17.5C8.37387 18.0967 8.61092 18.669 9.03288 19.091C9.45484 19.5129 10.0271 19.75 10.6239 19.75H16.2489C16.8456 19.75 17.4179 19.5129 17.8399 19.091C18.2618 18.669 18.4989 18.0967 18.4989 17.5V14.4726L19.9344 15.1904C20.0005 15.2241 20.0726 15.2445 20.1466 15.2503C20.2206 15.256 20.2951 15.2471 20.3656 15.2239C20.4361 15.2008 20.5014 15.1639 20.5576 15.1154C20.6138 15.067 20.6599 15.0078 20.6932 14.9415C20.7264 14.8751 20.7462 14.8028 20.7514 14.7287C20.7566 14.6547 20.7471 14.5803 20.7234 14.51C20.6997 14.4396 20.6623 14.3747 20.6134 14.3188C20.5645 14.263 20.505 14.2174 20.4384 14.1846L18.1884 13.0596C18.1026 13.0167 18.0073 12.9963 17.9115 13.0006C17.8156 13.0048 17.7225 13.0335 17.6409 13.0839C17.5592 13.1343 17.4919 13.2047 17.4451 13.2885C17.3984 13.3723 17.3739 13.4666 17.3739 13.5625V17.5C17.3739 17.7984 17.2553 18.0845 17.0444 18.2955C16.8334 18.5065 16.5472 18.625 16.2489 18.625H10.625C10.3266 18.625 10.0405 18.5065 9.8295 18.2955C9.61852 18.0845 9.5 17.7984 9.5 17.5V13.5625ZM20.75 9.0625C20.75 8.91332 20.6907 8.77024 20.5852 8.66475C20.4798 8.55926 20.3367 8.5 20.1875 8.5C20.0383 8.5 19.8952 8.55926 19.7897 8.66475C19.6843 8.77024 19.625 8.91332 19.625 9.0625V9.625H19.0625C18.9133 9.625 18.7702 9.68426 18.6647 9.78975C18.5593 9.89524 18.5 10.0383 18.5 10.1875C18.5 10.3367 18.5593 10.4798 18.6647 10.5852C18.7702 10.6907 18.9133 10.75 19.0625 10.75H19.625V11.3125C19.625 11.4617 19.6843 11.6048 19.7897 11.7102C19.8952 11.8157 20.0383 11.875 20.1875 11.875C20.3367 11.875 20.4798 11.8157 20.5852 11.7102C20.6907 11.6048 20.75 11.4617 20.75 11.3125V10.75H21.3125C21.4617 10.75 21.6048 10.6907 21.7102 10.5852C21.8157 10.4798 21.875 10.3367 21.875 10.1875C21.875 10.0383 21.8157 9.89524 21.7102 9.78975C21.6048 9.68426 21.4617 9.625 21.3125 9.625H20.75V9.0625Z" fill="black"/>
</svg>
