<svg width="22" height="23" viewBox="0 0 22 23" fill="none" xmlns="http://www.w3.org/2000/svg">
<path d="M20.6112 9.02696C20.241 8.64 19.8579 8.24125 19.7136 7.89062C19.58 7.56946 19.5721 7.03714 19.5643 6.52152C19.5496 5.56295 19.5338 4.4767 18.7786 3.72143C18.0233 2.96616 16.9371 2.95045 15.9785 2.93571C15.4629 2.92786 14.9305 2.92 14.6094 2.78643C14.2597 2.64205 13.86 2.25902 13.473 1.88875C12.7954 1.23759 12.0254 0.5 11 0.5C9.97464 0.5 9.20562 1.23759 8.52696 1.88875C8.14 2.25902 7.74125 2.64205 7.39062 2.78643C7.07143 2.92 6.53714 2.92786 6.02152 2.93571C5.06295 2.95045 3.9767 2.96616 3.22143 3.72143C2.46616 4.4767 2.45536 5.56295 2.43571 6.52152C2.42786 7.03714 2.42 7.56946 2.28643 7.89062C2.14205 8.24027 1.75902 8.64 1.38875 9.02696C0.737589 9.70464 0 10.4746 0 11.5C0 12.5254 0.737589 13.2944 1.38875 13.973C1.75902 14.36 2.14205 14.7587 2.28643 15.1094C2.42 15.4305 2.42786 15.9629 2.43571 16.4785C2.45045 17.4371 2.46616 18.5233 3.22143 19.2786C3.9767 20.0338 5.06295 20.0496 6.02152 20.0643C6.53714 20.0721 7.06946 20.08 7.39062 20.2136C7.74027 20.3579 8.14 20.741 8.52696 21.1112C9.20464 21.7624 9.97464 22.5 11 22.5C12.0254 22.5 12.7944 21.7624 13.473 21.1112C13.86 20.741 14.2587 20.3579 14.6094 20.2136C14.9305 20.08 15.4629 20.0721 15.9785 20.0643C16.9371 20.0496 18.0233 20.0338 18.7786 19.2786C19.5338 18.5233 19.5496 17.4371 19.5643 16.4785C19.5721 15.9629 19.58 15.4305 19.7136 15.1094C19.8579 14.7597 20.241 14.36 20.6112 13.973C21.2624 13.2954 22 12.5254 22 11.5C22 10.4746 21.2624 9.70562 20.6112 9.02696ZM15.4845 9.69875L9.98446 15.1988C9.91149 15.2718 9.82484 15.3298 9.72945 15.3693C9.63407 15.4088 9.53183 15.4292 9.42857 15.4292C9.32532 15.4292 9.22307 15.4088 9.12769 15.3693C9.03231 15.3298 8.94565 15.2718 8.87268 15.1988L6.51554 12.8416C6.44253 12.7686 6.38463 12.6819 6.34512 12.5866C6.30561 12.4912 6.28528 12.389 6.28528 12.2857C6.28528 12.1825 6.30561 12.0802 6.34512 11.9849C6.38463 11.8895 6.44253 11.8028 6.51554 11.7298C6.66297 11.5824 6.86293 11.4996 7.07143 11.4996C7.17467 11.4996 7.2769 11.5199 7.37228 11.5594C7.46766 11.5989 7.55432 11.6568 7.62732 11.7298L9.42857 13.5321L14.3727 8.58696C14.4457 8.51396 14.5323 8.45606 14.6277 8.41655C14.7231 8.37704 14.8253 8.35671 14.9286 8.35671C15.0318 8.35671 15.134 8.37704 15.2294 8.41655C15.3248 8.45606 15.4115 8.51396 15.4845 8.58696C15.5575 8.65996 15.6154 8.74663 15.6549 8.84201C15.6944 8.93739 15.7147 9.03962 15.7147 9.14286C15.7147 9.2461 15.6944 9.34832 15.6549 9.4437C15.6154 9.53908 15.5575 9.62575 15.4845 9.69875Z" fill="#6C51D2"/>
</svg>
