<svg width="20" height="21" viewBox="0 0 20 21" fill="none" xmlns="http://www.w3.org/2000/svg">
<rect y="0.5" width="20" height="20" rx="10" fill="#EFEFEF"/>
<path d="M13.4375 12.5625L15.8125 10.5313L16.2187 10.5625C16.3958 10.5833 16.534 10.6563 16.6331 10.7813C16.7323 10.9063 16.7817 11.0417 16.7812 11.1875C16.7812 11.2708 16.7656 11.3542 16.7344 11.4375C16.7031 11.5208 16.6458 11.5938 16.5625 11.6563L14.9375 13.0781L15.4219 15.1875C15.4323 15.2083 15.4375 15.2319 15.4375 15.2581V15.3281C15.4375 15.5052 15.375 15.6538 15.25 15.7738C15.125 15.8938 14.9792 15.9535 14.8125 15.9531C14.7604 15.9531 14.7058 15.9452 14.6488 15.9294C14.5917 15.9135 14.5369 15.8902 14.4844 15.8594L14.1562 15.6563L13.4375 12.5625ZM11.9688 8L11.3125 6.46875L11.4531 6.125C11.5052 6 11.5858 5.90355 11.695 5.83563C11.8042 5.76771 11.9163 5.73396 12.0312 5.73438C12.1462 5.7348 12.2583 5.76605 12.3675 5.82813C12.4767 5.89021 12.5573 5.98396 12.6094 6.10938L13.4688 8.14063L11.9688 8ZM6.03125 15.1875L6.71875 12.2344L4.42188 10.25C4.33854 10.1875 4.28396 10.1146 4.25812 10.0313C4.23229 9.94792 4.21917 9.86459 4.21875 9.78125C4.21875 9.63542 4.26833 9.5 4.3675 9.375C4.46667 9.25 4.60458 9.17709 4.78125 9.15625L7.8125 8.89063L8.98438 6.10938C9.03646 5.98438 9.11729 5.89063 9.22688 5.82813C9.33646 5.76563 9.44833 5.73438 9.5625 5.73438C9.67667 5.73438 9.78875 5.76563 9.89875 5.82813C10.0087 5.89063 10.0894 5.98438 10.1406 6.10938L11.3125 8.89063L14.3437 9.15625C14.5208 9.17709 14.659 9.25 14.7581 9.375C14.8573 9.5 14.9067 9.63542 14.9062 9.78125C14.9062 9.86459 14.8933 9.94792 14.8675 10.0313C14.8417 10.1146 14.7869 10.1875 14.7031 10.25L12.4062 12.2344L13.0938 15.1875C13.1042 15.2188 13.1094 15.2656 13.1094 15.3281C13.1094 15.5052 13.0469 15.6538 12.9219 15.7738C12.7969 15.8938 12.651 15.9535 12.4844 15.9531C12.4531 15.9531 12.3438 15.9219 12.1562 15.8594L9.5625 14.2969L6.96875 15.8594C6.91667 15.8906 6.86208 15.9142 6.805 15.93C6.74792 15.9458 6.69312 15.9535 6.64062 15.9531C6.45312 15.9531 6.29167 15.8775 6.15625 15.7263C6.02083 15.575 5.97917 15.3954 6.03125 15.1875Z" fill="#EBA92E"/>
</svg>
