<svg width="41" height="30" viewBox="0 0 41 30" fill="none" xmlns="http://www.w3.org/2000/svg">
<path d="M0 15C0 6.71573 6.71573 0 15 0H44V30H15C6.71573 30 0 23.2843 0 15Z" fill="#E2E8F8"/>
<path d="M21.7732 11.3053L16.1482 9.43031C16.052 9.39823 15.948 9.39823 15.8518 9.43031L10.2268 11.3053C10.1334 11.3364 10.0522 11.3961 9.99472 11.4759C9.93719 11.5558 9.90624 11.6516 9.90625 11.75V16.4375C9.90625 16.5619 9.95564 16.6811 10.0435 16.769C10.1315 16.8569 10.2507 16.9063 10.375 16.9063C10.4993 16.9063 10.6185 16.8569 10.7065 16.769C10.7944 16.6811 10.8437 16.5619 10.8437 16.4375V12.4004L12.8119 13.0561C12.289 13.9009 12.1227 14.9187 12.3496 15.886C12.5764 16.8533 13.1779 17.691 14.0219 18.2153C12.9672 18.6289 12.0555 19.3772 11.3887 20.4002C11.354 20.4518 11.3299 20.5097 11.3178 20.5706C11.3057 20.6316 11.3058 20.6943 11.3182 20.7552C11.3306 20.816 11.3549 20.8739 11.3898 20.9253C11.4247 20.9766 11.4695 21.0206 11.5215 21.0545C11.5735 21.0885 11.6318 21.1117 11.6929 21.1229C11.754 21.1342 11.8167 21.1331 11.8774 21.1199C11.9381 21.1067 11.9956 21.0815 12.0465 21.0459C12.0973 21.0102 12.1406 20.9649 12.1738 20.9123C13.0568 19.5577 14.4514 18.7813 16 18.7813C17.5486 18.7813 18.9432 19.5577 19.8262 20.9123C19.8949 21.0145 20.0011 21.0855 20.1218 21.11C20.2425 21.1346 20.368 21.1106 20.4712 21.0433C20.5743 20.976 20.6469 20.8708 20.6731 20.7505C20.6993 20.6302 20.6771 20.5043 20.6113 20.4002C19.9445 19.3772 19.0293 18.6289 17.9781 18.2153C18.8213 17.6911 19.4222 16.8539 19.649 15.8873C19.8758 14.9207 19.7101 13.9036 19.1881 13.059L21.7732 12.1977C21.8666 12.1666 21.9478 12.1069 22.0053 12.0271C22.0629 11.9473 22.0939 11.8514 22.0939 11.753C22.0939 11.6546 22.0629 11.5587 22.0053 11.4788C21.9478 11.399 21.8666 11.3393 21.7732 11.3082V11.3053ZM18.8125 15.0313C18.8126 15.4759 18.7073 15.9143 18.5052 16.3103C18.3032 16.7064 18.01 17.0489 17.65 17.3098C17.2899 17.5706 16.8731 17.7424 16.4337 17.8109C15.9944 17.8795 15.5451 17.8429 15.1226 17.7042C14.7002 17.5655 14.3166 17.3286 14.0035 17.013C13.6903 16.6974 13.4564 16.312 13.321 15.8884C13.1857 15.4649 13.1526 15.0153 13.2246 14.5765C13.2967 14.1378 13.4717 13.7223 13.7354 13.3643L15.8518 14.0674C15.948 14.0995 16.052 14.0995 16.1482 14.0674L18.2646 13.3643C18.6207 13.8471 18.8127 14.4313 18.8125 15.0313Z" fill="#6C51D2"/>
<path d="M24.27 19V18.04L26.59 15.61C26.7967 15.3833 26.96 15.18 27.08 15C27.2067 14.8133 27.2967 14.6367 27.35 14.47C27.41 14.3033 27.44 14.1333 27.44 13.96C27.44 13.6333 27.3333 13.3833 27.12 13.21C26.9067 13.0367 26.6033 12.95 26.21 12.95C25.9033 12.95 25.5967 13.01 25.29 13.13C24.99 13.2433 24.7033 13.4233 24.43 13.67L23.98 12.69C24.2733 12.43 24.63 12.2267 25.05 12.08C25.4767 11.9267 25.9167 11.85 26.37 11.85C26.87 11.85 27.2933 11.93 27.64 12.09C27.9933 12.2433 28.26 12.47 28.44 12.77C28.6267 13.07 28.72 13.43 28.72 13.85C28.72 14.0567 28.6933 14.2633 28.64 14.47C28.5933 14.67 28.5167 14.87 28.41 15.07C28.31 15.2633 28.1833 15.4633 28.03 15.67C27.8767 15.87 27.69 16.0833 27.47 16.31L25.73 18.12V17.91H28.99V19H24.27ZM32.4961 19.1C31.9361 19.1 31.4628 18.96 31.0761 18.68C30.6961 18.4 30.4061 17.99 30.2061 17.45C30.0128 16.91 29.9161 16.2467 29.9161 15.46C29.9161 14.6733 30.0128 14.0133 30.2061 13.48C30.3994 12.9467 30.6894 12.5433 31.0761 12.27C31.4628 11.99 31.9361 11.85 32.4961 11.85C33.0628 11.85 33.5361 11.9867 33.9161 12.26C34.3028 12.5333 34.5928 12.94 34.7861 13.48C34.9794 14.0133 35.0761 14.67 35.0761 15.45C35.0761 16.2367 34.9761 16.9 34.7761 17.44C34.5828 17.98 34.2961 18.3933 33.9161 18.68C33.5361 18.96 33.0628 19.1 32.4961 19.1ZM32.4961 18.02C32.9428 18.02 33.2728 17.8133 33.4861 17.4C33.7061 16.9867 33.8161 16.34 33.8161 15.46C33.8161 14.58 33.7094 13.94 33.4961 13.54C33.2828 13.1333 32.9494 12.93 32.4961 12.93C32.0494 12.93 31.7161 13.1333 31.4961 13.54C31.2828 13.94 31.1761 14.58 31.1761 15.46C31.1761 16.34 31.2828 16.9867 31.4961 17.4C31.7161 17.8133 32.0494 18.02 32.4961 18.02Z" fill="#444444"/>
</svg>
