<svg width="39" height="38" viewBox="0 0 39 38" fill="none" xmlns="http://www.w3.org/2000/svg">
<rect x="1.01351" y="0.513514" width="36.973" height="36.973" rx="18.4865" fill="#FEFEFE"/>
<rect x="1.01351" y="0.513514" width="36.973" height="36.973" rx="18.4865" stroke="#D2D2D2" stroke-width="1.02703"/>
<path d="M27.5878 13.5902C24.5953 13.2936 21.5849 13.1409 18.5834 13.1409C16.8041 13.1409 15.0247 13.2307 13.2454 13.4105L11.4122 13.5902" stroke="#FF3B30" stroke-width="1.54054" stroke-linecap="round" stroke-linejoin="round"/>
<path d="M16.3547 12.6824L16.5524 11.5052C16.6962 10.6515 16.8041 10.0134 18.3228 10.0134H20.6772C22.196 10.0134 22.3128 10.6874 22.4476 11.5142L22.6453 12.6824" stroke="#FF3B30" stroke-width="1.54054" stroke-linecap="round" stroke-linejoin="round"/>
<path d="M25.6558 16.4299L25.0716 25.4793C24.9728 26.8902 24.8919 27.9866 22.3847 27.9866H16.6153C14.1081 27.9866 14.0272 26.8902 13.9284 25.4793L13.3443 16.4299" stroke="#FF3B30" stroke-width="1.54054" stroke-linecap="round" stroke-linejoin="round"/>
<path d="M17.9993 23.0439H20.9918" stroke="#FF3B30" stroke-width="1.54054" stroke-linecap="round" stroke-linejoin="round"/>
<path d="M17.2534 19.4493H21.7466" stroke="#FF3B30" stroke-width="1.54054" stroke-linecap="round" stroke-linejoin="round"/>
</svg>
