<svg width="25" height="24" viewBox="0 0 25 24" fill="none" xmlns="http://www.w3.org/2000/svg">
<path d="M5.05254 6.44991C5.65254 3.85491 9.56004 3.85491 10.1525 6.44991C10.505 7.97241 9.53754 9.26241 8.69754 10.0649C8.08254 10.6499 7.11504 10.6424 6.50004 10.0649C5.66754 9.26241 4.70004 7.97241 5.05254 6.44991Z" stroke="#444444" stroke-width="1.5"/>
<path d="M14.8025 15.4499C15.4025 12.8549 19.3325 12.8549 19.9325 15.4499C20.285 16.9724 19.3175 18.2624 18.47 19.0649C17.855 19.6499 16.88 19.6424 16.265 19.0649C15.4175 18.2624 14.45 16.9724 14.8025 15.4499Z" stroke="#444444" stroke-width="1.5"/>
<path d="M12.5001 6.75H14.5101C15.8976 6.75 16.5426 8.4675 15.5001 9.3825L9.50764 14.625C8.46514 15.5325 9.11014 17.25 10.4901 17.25H12.5001" stroke="#444444" stroke-width="1.5" stroke-linecap="round" stroke-linejoin="round"/>
<path d="M7.61466 7.125H7.62333" stroke="#444444" stroke-width="2" stroke-linecap="round" stroke-linejoin="round"/>
<path d="M17.3647 16.125H17.3733" stroke="#444444" stroke-width="2" stroke-linecap="round" stroke-linejoin="round"/>
</svg>
