<svg width="20" height="20" viewBox="0 0 20 20" fill="none" xmlns="http://www.w3.org/2000/svg">
<path d="M14.3667 18.9582H5.63334C3.3 18.9582 1.81667 17.5665 1.68334 15.2415L1.25 8.3665C1.18334 7.32484 1.54167 6.32484 2.25834 5.5665C2.96667 4.80817 3.96667 4.37484 5 4.37484C5.26667 4.37484 5.525 4.2165 5.65 3.9665L6.25 2.77484C6.74167 1.79984 7.975 1.0415 9.05 1.0415H10.9583C12.0333 1.0415 13.2583 1.79984 13.75 2.7665L14.35 3.98317C14.475 4.2165 14.725 4.37484 15 4.37484C16.0333 4.37484 17.0333 4.80817 17.7417 5.5665C18.4583 6.33317 18.8167 7.32484 18.75 8.3665L18.3167 15.2498C18.1667 17.6082 16.725 18.9582 14.3667 18.9582ZM9.05 2.2915C8.43334 2.2915 7.65 2.77484 7.36667 3.33317L6.76667 4.53317C6.41667 5.20817 5.74167 5.62484 5 5.62484C4.3 5.62484 3.65 5.90817 3.16667 6.4165C2.69167 6.92484 2.45 7.5915 2.5 8.28317L2.93334 15.1665C3.03334 16.8498 3.94167 17.7082 5.63334 17.7082H14.3667C16.05 17.7082 16.9583 16.8498 17.0667 15.1665L17.5 8.28317C17.5417 7.5915 17.3083 6.92484 16.8333 6.4165C16.35 5.90817 15.7 5.62484 15 5.62484C14.2583 5.62484 13.5833 5.20817 13.2333 4.54984L12.625 3.33317C12.35 2.78317 11.5667 2.29984 10.95 2.29984H9.05V2.2915Z" fill="#1E1E1E"/>
<path d="M11.25 7.2915H8.75C8.40833 7.2915 8.125 7.00817 8.125 6.6665C8.125 6.32484 8.40833 6.0415 8.75 6.0415H11.25C11.5917 6.0415 11.875 6.32484 11.875 6.6665C11.875 7.00817 11.5917 7.2915 11.25 7.2915Z" fill="#1E1E1E"/>
<path d="M9.99999 15.6252C8.15832 15.6252 6.66666 14.1335 6.66666 12.2918C6.66666 10.4502 8.15832 8.9585 9.99999 8.9585C11.8417 8.9585 13.3333 10.4502 13.3333 12.2918C13.3333 14.1335 11.8417 15.6252 9.99999 15.6252ZM9.99999 10.2085C8.84999 10.2085 7.91666 11.1418 7.91666 12.2918C7.91666 13.4418 8.84999 14.3752 9.99999 14.3752C11.15 14.3752 12.0833 13.4418 12.0833 12.2918C12.0833 11.1418 11.15 10.2085 9.99999 10.2085Z" fill="#1E1E1E"/>
</svg>
