<svg width="25" height="25" viewBox="0 0 25 25" fill="none" xmlns="http://www.w3.org/2000/svg">
<path d="M10.6098 18.6501H6.81982C6.40982 18.6501 6.06982 18.3101 6.06982 17.9001V12.7802C6.06982 11.7402 6.91981 10.8901 7.95981 10.8901H10.6098C11.0198 10.8901 11.3598 11.2301 11.3598 11.6401V17.8901C11.3598 18.3101 11.0198 18.6501 10.6098 18.6501ZM7.56982 17.1501H9.8598V12.4001H7.95981C7.74981 12.4001 7.56982 12.5701 7.56982 12.7901V17.1501Z" fill="#696969"/>
<path d="M14.3901 18.6501H10.6001C10.1901 18.6501 9.8501 18.3101 9.8501 17.9001V8.24011C9.8501 7.20011 10.7001 6.3501 11.7401 6.3501H13.2601C14.3001 6.3501 15.1501 7.20011 15.1501 8.24011V17.9001C15.1401 18.3101 14.8101 18.6501 14.3901 18.6501ZM11.3601 17.1501H13.6501V8.24011C13.6501 8.03011 13.4801 7.8501 13.2601 7.8501H11.7401C11.5301 7.8501 11.3501 8.02011 11.3501 8.24011V17.1501H11.3601Z" fill="#696969"/>
<path d="M18.1801 18.6501H14.3901C13.9801 18.6501 13.6401 18.3101 13.6401 17.9001V13.3501C13.6401 12.9401 13.9801 12.6001 14.3901 12.6001H17.0401C18.0801 12.6001 18.9301 13.4501 18.9301 14.4901V17.9001C18.9301 18.3101 18.6001 18.6501 18.1801 18.6501ZM15.1401 17.1501H17.4301V14.4901C17.4301 14.2801 17.2601 14.1001 17.0401 14.1001H15.1401V17.1501Z" fill="#696969"/>
<path d="M15.5 23.25H9.5C4.07 23.25 1.75 20.93 1.75 15.5V9.5C1.75 4.07 4.07 1.75 9.5 1.75H15.5C20.93 1.75 23.25 4.07 23.25 9.5V15.5C23.25 20.93 20.93 23.25 15.5 23.25ZM9.5 3.25C4.89 3.25 3.25 4.89 3.25 9.5V15.5C3.25 20.11 4.89 21.75 9.5 21.75H15.5C20.11 21.75 21.75 20.11 21.75 15.5V9.5C21.75 4.89 20.11 3.25 15.5 3.25H9.5Z" fill="#696969"/>
</svg>
