<svg width="4" height="14" viewBox="0 0 4 14" fill="none" xmlns="http://www.w3.org/2000/svg">
<path fill-rule="evenodd" clip-rule="evenodd" d="M2 3.25C1.60218 3.25 1.22064 3.09196 0.93934 2.81066C0.658036 2.52936 0.5 2.14782 0.5 1.75C0.5 1.35218 0.658036 0.970644 0.93934 0.68934C1.22064 0.408035 1.60218 0.25 2 0.25C2.39782 0.25 2.77936 0.408035 3.06066 0.68934C3.34196 0.970644 3.5 1.35218 3.5 1.75C3.5 2.14782 3.34196 2.52936 3.06066 2.81066C2.77936 3.09196 2.39782 3.25 2 3.25ZM3.5 7C3.5 7.39782 3.34196 7.77936 3.06066 8.06066C2.77936 8.34196 2.39782 8.5 2 8.5C1.60218 8.5 1.22064 8.34196 0.93934 8.06066C0.658036 7.77936 0.5 7.39782 0.5 7C0.5 6.60218 0.658036 6.22064 0.93934 5.93934C1.22064 5.65804 1.60218 5.5 2 5.5C2.39782 5.5 2.77936 5.65804 3.06066 5.93934C3.34196 6.22064 3.5 6.60218 3.5 7ZM3.5 12.25C3.5 12.6478 3.34196 13.0294 3.06066 13.3107C2.77936 13.592 2.39782 13.75 2 13.75C1.60218 13.75 1.22064 13.592 0.93934 13.3107C0.658036 13.0294 0.5 12.6478 0.5 12.25C0.5 11.8522 0.658036 11.4706 0.93934 11.1893C1.22064 10.908 1.60218 10.75 2 10.75C2.39782 10.75 2.77936 10.908 3.06066 11.1893C3.34196 11.4706 3.5 11.8522 3.5 12.25Z" fill="black"/>
</svg>
